<svg width="632.2437866210937px" height="155.6px" xmlns="http://www.w3.org/2000/svg" viewBox="-66.12189331054685 -2.799999999999997 632.2437866210937 155.6" style="background: rgba(0, 0, 0, 0);" preserveAspectRatio="xMidYMid"><defs><filter id="editing-extrusion" x="-100%" y="-100%" width="300%" height="300%"><feFlood result="color1" flood-color="#515151"></feFlood><feConvolveMatrix order="6,6" divisor="1" kernelMatrix="1 0 0 0 0 0 0 1 0 0 0 0 0 0 1 0 0 0 0 0 0 1 0 0 0 0 0 0 1 0 0 0 0 0 0 1" in="SourceAlpha" result="extrude"></feConvolveMatrix><feComposite in="color1" in2="extrude" result="comp-extrude" operator="in"></feComposite><feOffset dx="3" dy="3" in="comp-extrude" result="offset-extrude"></feOffset><feMerge><feMergeNode in="offset-extrude"></feMergeNode><feMergeNode in="SourceGraphic"></feMergeNode></feMerge></filter></defs><g filter="url(#editing-extrusion)"><g transform="translate(26.1299729347229, 112.67000007629395)"><path d="M35.50-56.14L45.93-56.14L29.25-22.85L29.25 0L19.96 0L19.96-22.09L4.11-56.14L14.55-56.14L24.22-31.00L25.06-31.00L35.50-56.14ZM74.80-43.19L74.80-43.19L74.80-43.19Q79.22-43.19 82.80-41.48L82.80-41.48L82.80-41.48Q86.38-39.76 88.89-36.79L88.89-36.79L88.89-36.79Q91.41-33.82 92.78-29.86L92.78-29.86L92.78-29.86Q94.15-25.90 94.15-21.33L94.15-21.33L94.15-21.33Q94.15-16.76 92.70-12.76L92.70-12.76L92.70-12.76Q91.25-8.76 88.63-5.83L88.63-5.83L88.63-5.83Q86.00-2.89 82.38-1.26L82.38-1.26L82.38-1.26Q78.76 0.38 74.34 0.38L74.34 0.38L74.34 0.38Q69.85 0.38 66.16-1.29L66.16-1.29L66.16-1.29Q62.46-2.97 59.91-5.94L59.91-5.94L59.91-5.94Q57.36-8.91 55.99-12.87L55.99-12.87L55.99-12.87Q54.62-16.83 54.62-21.48L54.62-21.48L54.62-21.48Q54.62-26.13 56.10-30.16L56.10-30.16L56.10-30.16Q57.59-34.20 60.21-37.06L60.21-37.06L60.21-37.06Q62.84-39.91 66.57-41.55L66.57-41.55L66.57-41.55Q70.31-43.19 74.80-43.19ZM74.19-6.86L74.19-6.86L74.19-6.86Q76.48-6.86 78.34-7.96L78.34-7.96L78.34-7.96Q80.21-9.06 81.54-11.01L81.54-11.01L81.54-11.01Q82.88-12.95 83.67-15.62L83.67-15.62L83.67-15.62Q84.47-18.28 84.47-21.33L84.47-21.33L84.47-21.33Q84.47-24.38 83.75-27.04L83.75-27.04L83.75-27.04Q83.03-29.71 81.77-31.73L81.77-31.73L81.77-31.73Q80.51-33.74 78.69-34.96L78.69-34.96L78.69-34.96Q76.86-36.18 74.57-36.18L74.57-36.18L74.57-36.18Q72.29-36.18 70.38-35.04L70.38-35.04L70.38-35.04Q68.48-33.90 67.15-31.95L67.15-31.95L67.15-31.95Q65.81-30.01 65.09-27.38L65.09-27.38L65.09-27.38Q64.37-24.76 64.37-21.71L64.37-21.71L64.37-21.71Q64.37-18.66 65.01-15.96L65.01-15.96L65.01-15.96Q65.66-13.25 66.96-11.27L66.96-11.27L66.96-11.27Q68.25-9.29 70.04-8.07L70.04-8.07L70.04-8.07Q71.83-6.86 74.19-6.86ZM130.25-43.27L130.25-33.67L130.25-33.67Q128.12-34.28 125.07-34.35L125.07-34.35L125.07-34.35Q122.33-34.35 119.63-33.71L119.63-33.71L119.63-33.71Q116.92-33.06 115.32-31.54L115.32-31.54L115.32-15.23L115.32-15.08L115.32 0L106.11 0L106.11-42.96L114.33-42.96L115.32-38.54L115.32-38.54Q116.47-39.69 117.72-40.60L117.72-40.60L117.72-40.60Q118.98-41.51 120.66-42.08L120.66-42.08L120.66-42.08Q122.33-42.66 124.62-42.96L124.62-42.96L124.62-42.96Q126.90-43.27 130.25-43.27L130.25-43.27ZM143.51 10.82L148.84 5.56L148.84 5.56Q149.60 6.86 150.78 7.69L150.78 7.69L150.78 7.69Q151.96 8.53 153.22 8.99L153.22 8.99L153.22 8.99Q154.48 9.45 155.73 9.64L155.73 9.64L155.73 9.64Q156.99 9.83 157.98 9.83L157.98 9.83L157.98 9.83Q162.70 9.83 165.37 7.08L165.37 7.08L165.37 7.08Q168.04 4.34 168.04-2.29L168.04-2.29L168.04-4.27L168.04-4.42L168.11-4.80L168.11-4.80Q168.11-4.88 168.07-4.95L168.07-4.95L168.07-4.95Q168.04-5.03 168.04-5.10L168.04-5.10L168.04-5.10Q167.81-4.11 166.70-3.12L166.70-3.12L166.70-3.12Q165.60-2.13 163.92-1.33L163.92-1.33L163.92-1.33Q162.25-0.53 160.11-0.08L160.11-0.08L160.11-0.08Q157.98 0.38 155.70 0.38L155.70 0.38L155.70 0.38Q151.43 0.38 148.23-1.49L148.23-1.49L148.23-1.49Q145.03-3.35 142.90-6.47L142.90-6.47L142.90-6.47Q140.77-9.60 139.78-13.63L139.78-13.63L139.78-13.63Q138.79-17.67 138.79-22.09L138.79-22.09L138.79-22.09Q138.79-28.03 140.42-32.07L140.42-32.07L140.42-32.07Q142.06-36.11 144.61-38.66L144.61-38.66L144.61-38.66Q147.16-41.21 150.33-42.28L150.33-42.28L150.33-42.28Q153.49-43.34 156.53-43.34L156.53-43.34L156.53-43.34Q160.27-43.34 163.35-42.05L163.35-42.05L163.35-42.05Q166.44-40.75 168.04-38.62L168.04-38.62L169.03-42.96L177.25-42.96L177.18 0L177.18 0Q176.87 4.65 175.31 7.92L175.31 7.92L175.31 7.92Q173.75 11.20 171.31 13.33L171.31 13.33L171.31 13.33Q168.87 15.46 165.67 16.38L165.67 16.38L165.67 16.38Q162.47 17.29 158.82 17.29L158.82 17.29L158.82 17.29Q154.55 17.29 150.40 15.81L150.40 15.81L150.40 15.81Q146.25 14.32 143.51 10.82L143.51 10.82ZM168.64-21.79L168.64-21.79L168.64-21.79Q168.64-24.83 167.88-27.42L167.88-27.42L167.88-27.42Q167.12-30.01 165.83-31.99L165.83-31.99L165.83-31.99Q164.53-33.97 162.63-35.12L162.63-35.12L162.63-35.12Q160.72-36.26 158.51-36.26L158.51-36.26L158.51-36.26Q156.23-36.26 154.36-35.08L154.36-35.08L154.36-35.08Q152.50-33.90 151.20-31.92L151.20-31.92L151.20-31.92Q149.91-29.94 149.22-27.27L149.22-27.27L149.22-27.27Q148.54-24.60 148.54-21.63L148.54-21.63L148.54-21.63Q148.54-18.59 149.26-15.88L149.26-15.88L149.26-15.88Q149.98-13.18 151.32-11.20L151.32-11.20L151.32-11.20Q152.65-9.22 154.51-8.04L154.51-8.04L154.51-8.04Q156.38-6.86 158.67-6.86L158.67-6.86L158.67-6.86Q161.03-6.86 162.86-8.04L162.86-8.04L162.86-8.04Q164.68-9.22 165.94-11.24L165.94-11.24L165.94-11.24Q167.20-13.25 167.92-16.00L167.92-16.00L167.92-16.00Q168.64-18.74 168.64-21.79ZM210.08-43.42L210.08-43.42L210.08-43.42Q215.26-43.42 219.22-41.32L219.22-41.32L219.22-41.32Q223.18-39.23 225.74-35.76L225.74-35.76L225.74-35.76Q228.29-32.30 229.39-27.76L229.39-27.76L229.39-27.76Q230.50-23.23 229.81-18.36L229.81-18.36L199.95-18.36L199.95-18.36Q199.95-15.92 200.87-13.86L200.87-13.86L200.87-13.86Q201.78-11.81 203.34-10.32L203.34-10.32L203.34-10.32Q204.90-8.84 207.07-8.00L207.07-8.00L207.07-8.00Q209.24-7.16 211.76-7.16L211.76-7.16L211.76-7.16Q212.60-7.16 213.85-7.35L213.85-7.35L213.85-7.35Q215.11-7.54 216.52-8.04L216.52-8.04L216.52-8.04Q217.93-8.53 219.34-9.29L219.34-9.29L219.34-9.29Q220.75-10.05 221.81-11.12L221.81-11.12L225.16-6.02L225.16-6.02Q222.65-2.89 219.30-1.29L219.30-1.29L219.30-1.29Q215.95 0.30 210.77 0.30L210.77 0.30L210.77 0.30Q206.58 0.30 202.92-1.41L202.92-1.41L202.92-1.41Q199.27-3.12 196.68-6.09L196.68-6.09L196.68-6.09Q194.09-9.06 192.56-13.03L192.56-13.03L192.56-13.03Q191.04-16.99 191.04-21.56L191.04-21.56L191.04-21.56Q191.04-26.05 192.56-30.05L192.56-30.05L192.56-30.05Q194.09-34.05 196.64-37.02L196.64-37.02L196.64-37.02Q199.19-39.99 202.69-41.70L202.69-41.70L202.69-41.70Q206.20-43.42 210.08-43.42ZM200.26-25.06L221.28-25.06L221.28-25.06Q221.28-27.12 220.52-29.10L220.52-29.10L220.52-29.10Q219.76-31.08 218.42-32.68L218.42-32.68L218.42-32.68Q217.09-34.28 215.19-35.23L215.19-35.23L215.19-35.23Q213.28-36.18 211.07-36.26L211.07-36.26L211.07-36.26Q208.71-36.26 206.73-35.34L206.73-35.34L206.73-35.34Q204.75-34.43 203.30-32.91L203.30-32.91L203.30-32.91Q201.86-31.38 201.06-29.29L201.06-29.29L201.06-29.29Q200.26-27.19 200.26-25.06L200.26-25.06ZM242.07-56.14L279.40-56.14L279.40-48.75L252.66-8.61L251.14-7.39L279.40-7.39L279.40 0L242.07 0L242.07-7.39L268.81-47.53L270.41-48.75L242.07-48.75L242.07-56.14ZM298.67-5.18L298.67-5.18L298.67-5.18Q298.67-2.89 297.07-1.29L297.07-1.29L297.07-1.29Q295.47 0.30 293.19 0.30L293.19 0.30L293.19 0.30Q290.90 0.30 289.34-1.29L289.34-1.29L289.34-1.29Q287.78-2.89 287.78-5.18L287.78-5.18L287.78-5.18Q287.78-7.46 289.38-9.03L289.38-9.03L289.38-9.03Q290.98-10.59 293.19-10.59L293.19-10.59L293.19-10.59Q295.47-10.59 297.07-9.03L297.07-9.03L297.07-9.03Q298.67-7.46 298.67-5.18ZM336.60-42.96L347.04-42.96L332.95-21.56L346.96 0L336.38 0L327.69-15.39L326.93-15.39L317.56 0L306.97 0L320.99-21.56L306.90-42.96L317.33-42.96L326.17-27.50L326.93-27.50L336.60-42.96ZM391.90-42.96L401.20-42.96L401.20-42.96Q397.01-31.76 393.73-23.12L393.73-23.12L393.73-23.12Q390.46-14.47 388.02-7.96L388.02-7.96L388.02-7.96Q385.58-1.45 383.72 3.05L383.72 3.05L383.72 3.05Q381.85 7.54 380.29 10.55L380.29 10.55L380.29 10.55Q378.73 13.56 377.36 15.27L377.36 15.27L377.36 15.27Q375.98 16.99 374.54 17.90L374.54 17.90L374.54 17.90Q373.09 18.81 371.38 19.00L371.38 19.00L371.38 19.00Q369.66 19.20 367.45 19.20L367.45 19.20L367.45 19.20Q366.77 19.20 365.85 19.00L365.85 19.00L365.85 19.00Q364.94 18.81 364.06 18.55L364.06 18.55L364.06 18.55Q363.19 18.28 362.50 18.01L362.50 18.01L362.50 18.01Q361.82 17.75 361.59 17.67L361.59 17.67L361.59 17.67Q361.89 16.30 362.20 15.08L362.20 15.08L362.20 15.08Q362.43 14.02 362.69 13.06L362.69 13.06L362.69 13.06Q362.96 12.11 363.11 11.73L363.11 11.73L363.11 11.73Q363.72 11.73 364.98 12.11L364.98 12.11L364.98 12.11Q366.23 12.49 366.84 12.49L366.84 12.49L366.84 12.49Q368.06 12.49 369.01 12.38L369.01 12.38L369.01 12.38Q369.97 12.26 370.73 11.69L370.73 11.69L370.73 11.69Q371.49 11.12 372.18 10.02L372.18 10.02L372.18 10.02Q372.86 8.91 373.70 6.86L373.70 6.86L376.59 0L359.00-42.96L368.21-42.96L380.78-9.90L391.90-42.96ZM410.95-35.57L410.95-42.96L443.63-42.96L443.63-35.57L421.54-8.61L420.01-7.39L443.63-7.39L443.63 0L410.95 0L410.95-7.39L433.04-34.35L434.56-35.57L410.95-35.57Z" fill="#f0f4f8"></path></g></g><style>text {
  font-size: 64px;
  font-family: Arial Black;
  dominant-baseline: central;
  text-anchor: middle;
}</style></svg>